# xmcd
#
# Track frame offsets: 
#        150
#        12690
#        29732
#        51722
#        67945
#        81082
#        92604
#        110860
#        132840
#        147210
#        158820
#
# Disc length: 2380 seconds
#
# Revision: 3
# Processed by: cddbd v1.5.2PL0 Copyright (c) Steve Scherf et al.
# Submitted via: ExactAudioCopy v1.0b4
#
DISCID=9e094a0b
DTITLE=Howlin' Wolf - The Back Door Wolf
DYEAR=1973
DGENRE=Blues
TTITLE0=Moving
TTITLE1=Coon On The Moon
TTITLE2=Speak Now Woman
TTITLE3=Trying To Forget You
TTITLE4=Stop Using Me
TTITLE5=Leave Here Walking
TTITLE6=The Back Door Wolf
TTITLE7=You Turn Slick On Me
TTITLE8=Watergate Blues
TTITLE9=Can't Stay Here
TTITLE10=Speak Now Woman (alternate)
EXTD=*Previously unreleased CD-only bonus track
EXTT0=
EXTT1=
EXTT2=
EXTT3=
EXTT4=
EXTT5=
EXTT6=
EXTT7=
EXTT8=
EXTT9=
EXTT10=
PLAYORDER=
